<?xml version="1.0" encoding="utf-8"?>
<!-- Generator: Adobe Illustrator 28.1.0, SVG Export Plug-In . SVG Version: 6.00 Build 0)  -->
<svg version="1.1" id="Layer_1" xmlns="http://www.w3.org/2000/svg" xmlns:xlink="http://www.w3.org/1999/xlink" x="0px" y="0px"
	 viewBox="0 0 512 512" style="enable-background:new 0 0 512 512;" xml:space="preserve">
<style type="text/css">
	.st0{fill:#488CBF;}
	.st1{fill:#B2B3B3;}
	.st2{fill:#FEFEFE;}
	.st3{fill:#434244;}
</style>
<path class="st0" d="M259.9,228.2c-7.1-0.5-14.4,4.8-14.4,12.8c0,12.7,0,25.3,0,38c0,8.4,7.6,13.6,14.1,13c2.4-0.2,3,0.5,2.9,2.8
	c-0.1,10.2-0.1,20.3,0,30.5c0,2.1-0.6,2.9-2.8,2.9c-11.8-0.1-23.7,0-35.5,0c-6.6,0-9.6,3.1-10.2,9.7c-0.6,5.8-1.7,11.6-2.7,17.4
	c-0.4,2.1,0,4.3-0.7,6.4c-0.5,1.6-1.2,2.2-2.9,1.8c-1.1-0.2-2.1-0.3-3.2-0.3c-13-0.8-26-1.6-39-2.9c-5-0.5-10,0.1-14.9-1
	c-1.7-0.4-2.4-1-2.3-2.5c0.2-7.6-1.3-15.1-1.2-22.7c0.1-2.7-0.6-5.3-1-7.9c-0.3-2.3-3.9-4.9-6.7-5.1c-8-0.7-16-1.5-24-2.2
	c-10.2-1-20.5-1.9-30.7-3c-4.9-0.5-10-0.3-14.8-1.6c-1.2-0.3-1.7-0.7-1.6-1.9c0.1-2.4,0-4.8,0-7.2c0-33.1-0.1-66.3,0.2-99.5
	c0-5-1.6-8.6-4.5-12.3c-6.8-8.6-12.6-17.9-18.9-27c-2.7-3.9-2.6-6.7,0-10.5c5.8-8.5,11.6-17.1,18-25.2c5.2-6.6,10.8-12.8,16.4-19.1
	c1-1.1,1.6-1.3,3.1-0.5c11.4,5.9,22.5,12.3,33.3,19.3c0.3,0.2,0.7,0.5,1,0.8c2,1.7,3.5,0.9,5.3-0.7c11.2-10.1,23.2-19,36.4-26.4
	c1.5-0.8,2.1-1.9,1.9-3.8c-1.1-10.5-2.1-21-2.7-31.5c-0.3-4.2-0.3-8.3-0.5-12.5c-0.1-1.1,0.4-1.7,1.5-2.2c9.9-4.8,20-8.8,30.5-12.1
	c7.3-2.3,14.6-4.5,22.1-6c3.8-0.7,3.9-0.9,5.8,2.5c6.6,11.6,12.9,23.5,18.2,35.8c0.7,1.6,1.5,2.3,3.7,2.2c4.8-0.2,9.5-1.6,14.4-1.4
	c2.8,0.1,5.3,1.2,8.1,1.2c0.5,0,0.6,0.5,0.8,0.9c0,8.8,0.2,17.6,0.2,26.4c0.3,40.8,0.1,81.5,0.2,122.3
	C262.5,227.8,262,228.7,259.9,228.2L259.9,228.2z M203.1,245.8c0.5-23.9-19.5-42.7-42.4-42.6c-23.3,0-42.6,18.9-42.6,42.6
	c0,23.2,18.4,42.1,41.8,42.6C183.9,288.8,203.9,268.7,203.1,245.8L203.1,245.8z"/>
<path class="st1" d="M259.9,228.2c2.1,0.5,2.6-0.4,2.6-2.4c-0.1-40.8,0.1-81.5-0.2-122.3c-0.1-8.8-0.3-17.6-0.2-26.4
	c1.3,0.4,0.8,1.5,0.8,2.3c0,6.3,0.1,12.7,0,19c0,2.1,0.6,2.7,2.7,2.7c21.2,0,42.3-0.1,63.5,0.1c5.3,0.1,10.5,1.5,15.7,2.7
	c5.5,1.3,10.8,3.1,16,5.2c10.4,4.3,20.1,10.1,28.9,17.1c4.7,3.8,9.4,7.6,13.5,12c12.2,12.8,22.3,27,29.8,43
	c3.4,7.2,6.3,14.7,8.6,22.3c2,6.4,3.4,12.9,4.4,19.6c1.5,9.5,2.3,19,1.6,28.5c-0.3,4.2-0.8,8.5-1.4,12.8c-0.7,4.1-1.6,8.1-2.5,12.1
	c-0.7,3.6-2.1,7.2-3.3,10.7c-2.5,7.2-5.8,14-9.5,20.7c-2.6,4.7-5.5,9.1-8.8,13.4c-4.4,5.7-9,11.2-14.3,16.1
	c-6.7,6.2-13.9,11.9-21.8,16.5c-1.7,1-2.2,2.1-2.2,4c0,13.5,0,27,0.1,40.5c0,2.1-0.4,2.9-2.7,2.9c-8.9-0.1-17.8-0.1-26.7,0
	c-2.1,0-2.6-0.6-2.6-2.7c0.1-18.2,0-36.5,0.1-54.7c0-2.2-0.5-2.8-2.8-2.8c-8.8,0.1-17.7,0.1-26.5,0c-2.4,0-2.9,0.8-2.8,3
	c0.1,8.7,0,17.5,0.1,26.2c0,2.2-0.6,2.9-2.8,2.9c-8.7-0.1-17.3-0.1-26,0c-2.5,0-3.3-0.7-3.3-3.2c0.1-33,0.1-66,0-99
	c0-4.3,0.5-3.8-3.7-3.8c-7.2,0-14.5-0.1-21.7,0c-2,0-2.7-0.5-2.7-2.6C260,252.3,259.9,240.3,259.9,228.2L259.9,228.2z M320,244.3
	c0,18.7,14.6,32.4,31.9,32.4c17.3,0,31.5-13.4,32.1-31.5c0.6-17.5-14.7-32.3-31.7-32.5C334.4,212.6,319.7,228,320,244.3L320,244.3z"
	/>
<path class="st0" d="M262.4,393.7c0,15.8,0,31.7,0,47.5c0,2.6-0.9,3.6-3.5,3.6c-6.5,0-13,0.2-19.5-0.6c-1.4-0.2-2.8-0.3-4.2-0.2
	c-7,0.3-13.9-0.9-20.9-1.3c-7.7-0.5-15.5-1.6-23.1-3c-8.9-1.6-17.8-3.4-26.6-5.6c-16.4-4.1-32.2-9.5-47.1-17.4
	c-12.1-6.4-23-14.3-31.9-24.8c-6.9-8.1-11.9-17.1-14.8-27.5c-2.7-9.6-2.9-19.5-2.8-29.3c0-1.8-0.7-4,0.4-5.4
	c1.2-1.6,3.2,0.1,4.9,0.2c8.9,0.5,17.7,1.2,26.5,2.2c6.8,0.8,13.5,1.4,20.3,2c3.2,0.3,6.4,0.8,9.6,0.9c1.4,0,2.2,0.8,2.1,2.2
	c-0.2,6,1.3,11.9,1.1,17.9c-0.1,4.2,1,8.2,1.1,12.4c0.1,3.2,3.6,6.2,7.2,6.2c6.9,0,13.8,0.8,20.6,1.4c10.8,0.9,21.7,1.5,32.5,2.4
	c7.2,0.6,14.4,1.4,21.6,1.4c4.7,0,7.2-2.7,8-7.3c1-5.6,1.6-11.3,2.6-16.9c0.5-3,1.3-6,1.3-9.1c0-1.9,0.9-2.7,2.8-2.7
	c9.8,0,19.5,0,29.2,0c1.8,0,2.4,0.7,2.4,2.3c0,3.2,0,6.3,0,9.5C262.5,367.9,262.5,380.8,262.4,393.7L262.4,393.7z"/>
<path class="st2" d="M203.1,245.8c0.8,23-19.2,43.1-43.2,42.6c-23.4-0.5-41.8-19.4-41.8-42.6c0-23.7,19.2-42.6,42.6-42.6
	C183.6,203.1,203.6,221.9,203.1,245.8L203.1,245.8z M190.2,248.4c0.6-15.8-12.9-28.2-27.5-28.4c-15.9-0.2-28.6,12.5-28.8,27.8
	c-0.2,15.9,12.4,28.7,28.2,28.7C177.8,276.5,190.6,263.9,190.2,248.4L190.2,248.4z"/>
<path class="st2" d="M320,244.3c-0.3-16.4,14.4-31.8,32.3-31.6c17,0.1,32.2,15,31.7,32.5c-0.6,18.1-14.8,31.6-32.1,31.5
	C334.6,276.7,320,263,320,244.3L320,244.3z"/>
<path class="st3" d="M190.2,248.4c0.4,15.5-12.4,28.1-28.1,28.1c-15.8,0-28.4-12.8-28.2-28.7c0.2-15.3,12.9-28,28.8-27.8
	C177.4,220.2,190.8,232.7,190.2,248.4L190.2,248.4z"/>
</svg>
