<?xml version="1.0" encoding="UTF-8"?>
<svg xmlns="http://www.w3.org/2000/svg" version="1.1" viewBox="0 0 16 16">
  <defs>
    <style>
      .cls-1 {
        fill: #e0e0e0;
      }

      .cls-2 {
        fill: #4a90e2;
      }
    </style>
  </defs>
  <!-- Generator: Adobe Illustrator 28.6.0, SVG Export Plug-In . SVG Version: 1.2.0 Build 709)  -->
  <g>
    <g id="Layer_1">
      <path class="cls-1" d="M2,1v14h12V6h-5V1H2ZM10,1v4h4L10,1Z"/>
      <path class="cls-2" d="M6,7h4v-1c0-1.1-.9-2-2-2s-2,.9-2,2v1ZM5,7v-1c0-1.7,1.3-3,3-3s3,1.3,3,3v1h0c.6,0,1,.4,1,1v4c0,.6-.4,1-1,1h-6c-.6,0-1-.4-1-1v-4c0-.6.4-1,1-1Z"/>
      <circle class="cls-2" cx="8" cy="10" r="1"/>
    </g>
  </g>
</svg>